HIERARCHY
ROOT Hips
{
 OFFSET 0.000000 0.000000 0.000000
 CHANNELS 6 Xposition Yposition Zposition Yrotation Xrotation Zrotation
 JOINT Chest
 {
  OFFSET 0.000000 9.585900 0.002600
  CHANNELS 3 Yrotation Xrotation Zrotation
  JOINT Chest2
  {
   OFFSET 0.000000 9.601200 -0.005300
   CHANNELS 3 Yrotation Xrotation Zrotation
   JOINT Chest3
   {
    OFFSET 0.000000 9.561800 0.000000
    CHANNELS 3 Yrotation Xrotation Zrotation
    JOINT Chest4
    {
     OFFSET 0.000000 9.552100 0.000000
     CHANNELS 3 Yrotation Xrotation Zrotation
     JOINT Neck
     {
      OFFSET 0.000000 14.453000 0.000000
      CHANNELS 3 Yrotation Xrotation Zrotation
      JOINT Head
      {
       OFFSET 0.000000 8.936500 -0.011300
       CHANNELS 3 Yrotation Xrotation Zrotation
       End Site
       {
        OFFSET 0.000000 17.073600 -0.006000
       }
      }
     }
     JOINT RightCollar
     {
      OFFSET -2.921100 9.558500 0.000000
      CHANNELS 3 Yrotation Xrotation Zrotation
      JOINT RightShoulder
      {
       OFFSET -13.519700 0.000000 0.000000
       CHANNELS 3 Yrotation Xrotation Zrotation
       JOINT RightElbow
       {
        OFFSET 0.000000 -29.696600 0.000000
        CHANNELS 3 Yrotation Xrotation Zrotation
        JOINT RightWrist
        {
         OFFSET 0.000000 -24.004700 0.000000
         CHANNELS 3 Yrotation Xrotation Zrotation
         End Site
         {
          OFFSET 0.000000 -17.728500 0.000000
         }
        }
       }
      }
     }
     JOINT LeftCollar
     {
      OFFSET 2.921100 9.558500 0.000000
      CHANNELS 3 Yrotation Xrotation Zrotation
      JOINT LeftShoulder
      {
       OFFSET 13.519700 0.000000 0.000000
       CHANNELS 3 Yrotation Xrotation Zrotation
       JOINT LeftElbow
       {
        OFFSET 0.000000 -29.696600 0.000000
        CHANNELS 3 Yrotation Xrotation Zrotation
        JOINT LeftWrist
        {
         OFFSET 0.000000 -24.004700 0.000000
         CHANNELS 3 Yrotation Xrotation Zrotation
         End Site
         {
          OFFSET 0.000000 -17.728500 0.000000
         }
        }
       }
      }
     }
    }
   }
  }
 }
 JOINT RightHip
 {
  OFFSET -7.771700 -0.012900 -0.001300
  CHANNELS 3 Yrotation Xrotation Zrotation
  JOINT RightKnee
  {
   OFFSET 0.000000 -40.869800 0.001200
   CHANNELS 3 Yrotation Xrotation Zrotation
   JOINT RightAnkle
   {
    OFFSET 0.000000 -39.717900 0.002100
    CHANNELS 3 Yrotation Xrotation Zrotation
    JOINT RightToe
    {
     OFFSET 0.000000 -4.965400 11.033500
     CHANNELS 3 Yrotation Xrotation Zrotation
     End Site
     {
      OFFSET 0.000000 -1.423100 5.872300
     }
    }
   }
  }
 }
 JOINT LeftHip
 {
  OFFSET 7.771700 -0.012900 -0.001300
  CHANNELS 3 Yrotation Xrotation Zrotation
  JOINT LeftKnee
  {
   OFFSET 0.000000 -40.869800 0.001200
   CHANNELS 3 Yrotation Xrotation Zrotation
   JOINT LeftAnkle
   {
    OFFSET 0.000000 -39.717900 0.002100
    CHANNELS 3 Yrotation Xrotation Zrotation
    JOINT LeftToe
    {
     OFFSET 0.000000 -4.965400 11.033500
     CHANNELS 3 Yrotation Xrotation Zrotation
     End Site
     {
      OFFSET 0.000000 -1.423100 5.872300
     }
    }
   }
  }
 }
}
MOTION
Frames: 12
Frame Time: 0.008333
0.000000 85.388000 0.000000 0.000000 -5.767877 0.000000 0.000000 11.653817 0.000000 0.000000 -5.885947 0.000000 0.000000 -0.000000 0.000000 0.000000 -0.000000 0.000000 0.000000 12.528835 0.000000 0.000000 0.711642 0.000000 0.000000 -0.000000 0.000000 0.000000 0.000000 -90.000000 0.000000 -2.309062 0.000000 0.000000 2.309062 0.000000 0.000000 -0.000000 0.000000 0.000000 -0.000000 90.000000 0.000000 -2.309062 0.000000 0.000000 2.309062 0.000000 0.000000 8.520406 0.000000 0.000000 1.905762 0.000000 -0.000000 -4.658285 0.000000 0.000000 -0.000000 0.000000 0.000000 8.520406 0.000000 0.000000 1.905762 0.000000 -0.000000 -4.658285 0.000000 0.000000 -0.000000 0.000000
-47.552387 55.101961 45.567136 -178.420034 -29.856746 -10.610225 0.056803 13.659251 5.543571 -0.094929 7.855749 2.185566 -0.072143 9.817946 2.736033 -0.114681 7.848379 2.186301 3.338605 18.888645 1.380921 3.192257 -5.758124 0.720119 0.715128 1.673585 -3.320235 -16.680576 -8.375127 4.443177 -117.176277 -59.367586 145.228153 1.399627 -9.507653 -3.848732 -9.164365 1.291783 -4.094454 7.614821 -8.461002 0.696936 162.479222 -58.220246 -171.263885 33.586764 -0.016125 -13.999151 -19.737708 -37.535992 5.456435 16.243255 85.642475 11.955392 0.590263 -15.548885 1.988932 -0.074871 0.464411 -0.014688 -15.299453 -48.255337 15.155238 170.412277 79.199745 165.512216 -1.373917 -16.430124 2.237652 -0.726993 -2.373914 -0.337693
-47.558071 55.099947 45.562780 -178.408264 -29.844182 -10.614903 0.055707 13.654469 5.547722 -0.091703 7.856082 2.186158 0.000264 9.843505 2.743877 -0.100603 7.848250 2.189211 3.285009 18.856286 1.327280 3.167677 -5.784418 0.667815 0.707552 1.725649 -3.309844 -16.763436 -8.177364 4.430468 -118.378506 -60.458002 145.770753 1.698318 -9.473295 -4.311075 -9.111366 1.301638 -4.054086 7.657502 -8.154373 0.695600 165.912885 -58.923970 -173.536220 32.822994 -0.187899 -14.357681 -19.740950 -37.546616 5.457104 16.242012 85.649812 11.947109 0.589631 -15.555501 1.997692 -0.073153 0.463295 -0.012630 -15.366348 -48.273730 15.153930 170.270666 79.175283 165.359962 -1.329552 -16.399786 2.217770 -0.760275 -2.410016 -0.348744
-47.565701 55.097191 45.557707 -178.395306 -29.825836 -10.615432 0.088343 13.658624 5.562431 -0.081183 7.855353 2.188447 0.009073 9.837447 2.746839 -0.071910 7.853148 2.191195 3.237860 18.825785 1.264200 3.150783 -5.811189 0.604155 0.706938 1.797870 -3.293797 -16.865716 -8.015277 4.428379 -119.599197 -61.530853 146.359400 1.973753 -9.501713 -4.888146 -9.051031 1.315748 -4.010600 7.644245 -7.852252 0.683710 169.611948 -59.575920 -176.034409 32.119031 -0.422743 -14.640876 -19.730182 -37.566033 5.445739 16.227961 85.658652 11.935371 0.586185 -15.563569 2.009390 -0.065292 0.462472 -0.014962 -15.397885 -48.288592 15.132136 170.271997 79.172622 165.372644 -1.313387 -16.414699 2.186951 -0.744515 -2.399439 -0.339640
-47.574180 55.094185 45.551488 -178.370656 -29.803727 -10.622370 0.152969 13.676661 5.593996 -0.116090 7.829788 2.181857 0.021069 9.834540 2.753102 -0.063074 7.849973 2.194216 3.191915 18.804209 1.232340 3.166225 -5.837988 0.481443 0.723680 1.891857 -3.280228 -16.984456 -7.887548 4.446956 -120.763925 -62.549781 146.932720 2.242533 -9.591863 -5.535854 -8.969583 1.336687 -3.971998 7.629819 -7.568415 0.671265 173.401323 -60.177341 -178.653182 31.481092 -0.723287 -14.823669 -19.730909 -37.584966 5.444301 16.126102 85.671616 11.824051 0.579548 -15.574551 2.032844 -0.067986 0.462045 -0.013393 -15.441486 -48.311492 15.119051 170.214949 79.159997 165.317941 -1.307298 -16.414584 2.176762 -0.736659 -2.403901 -0.343062
-47.584128 55.090446 45.545030 -178.342698 -29.773114 -10.626099 0.166792 13.672676 5.603593 -0.105658 7.824022 2.185392 -0.001437 9.821213 2.751929 -0.058825 7.848078 2.195822 3.180699 18.792481 1.194561 3.189023 -5.863931 0.350529 0.761024 2.004661 -3.270151 -17.101614 -7.789608 4.492404 -121.809995 -63.478306 147.419378 2.491627 -9.730812 -6.177394 -8.856640 1.364599 -3.940166 7.624201 -7.302797 0.670571 177.164758 -60.743286 178.699939 30.888296 -1.103125 -14.901410 -19.729918 -37.613666 5.436435 15.982137 85.686230 11.672826 0.579038 -15.588045 2.056421 -0.074633 0.462386 -0.008691 -15.477687 -48.343107 15.106371 170.171442 79.149226 165.273204 -1.320810 -16.416671 2.184242 -0.724591 -2.406216 -0.346688
-47.594114 55.086392 45.538170 -178.314875 -29.737021 -10.631842 0.180786 13.664639 5.617192 -0.059148 7.836389 2.197778 -0.061770 9.786918 2.744779 0.000322 7.864283 2.204623 3.177938 18.760064 1.048530 3.148374 -5.892028 0.342228 0.733047 2.099828 -3.259671 -17.202149 -7.710009 4.565614 -122.716018 -64.296321 147.782702 2.696121 -9.903372 -6.732631 -8.802309 1.370149 -3.906322 7.607728 -7.049912 0.681721 -179.084895 -61.269609 176.035560 30.336014 -1.550933 -14.883386 -19.732399 -37.646306 5.435895 15.910426 85.699590 11.590631 0.567134 -15.602689 2.087374 -0.075357 0.463822 -0.011120 -15.518247 -48.380311 15.098464 170.122132 79.137283 165.223494 -1.330682 -16.419047 2.183592 -0.715008 -2.408184 -0.343689
-47.605071 55.081918 45.531016 -178.278339 -29.693664 -10.637050 0.187478 13.649277 5.627381 -0.036345 7.840513 2.207264 -0.066920 9.780151 2.748153 0.031578 7.864111 2.212256 3.153280 18.732894 0.942870 3.131929 -5.918256 0.281712 0.694750 2.182023 -3.249818 -17.272583 -7.630527 4.659148 -123.532257 -65.011994 148.044400 2.859276 -10.102163 -7.158180 -8.764548 1.370964 -3.876200 7.587342 -6.811640 0.696997 -175.338048 -61.754640 173.344902 29.829051 -2.065833 -14.805286 -19.736626 -37.685838 5.428903 15.912368 85.713917 11.583514 0.550051 -15.620641 2.120182 -0.070786 0.465764 -0.013413 -15.590670 -48.423868 15.087991 170.028052 79.120491 165.122004 -1.314344 -16.416161 2.168717 -0.728169 -2.414576 -0.338962
-47.615411 55.078495 45.521681 -178.244811 -29.659862 -10.645037 0.202497 13.641693 5.642583 -0.026753 7.837536 2.212834 -0.058736 9.775708 2.755205 0.044905 7.862016 2.217201 3.133456 18.713755 0.857737 3.129825 -5.940251 0.195769 0.671572 2.250823 -3.233684 -17.321894 -7.538915 4.770495 -124.411602 -65.674832 148.331025 2.999923 -10.326779 -7.454926 -8.722129 1.378547 -3.845251 7.570226 -6.590408 0.714345 -171.613980 -62.208476 170.628118 29.366596 -2.661119 -14.708281 -19.736493 -37.713618 5.424622 15.813831 85.728875 11.472975 0.545231 -15.638281 2.149572 -0.071810 0.465912 -0.011461 -15.634084 -48.455637 15.076670 170.000071 79.108773 165.093791 -1.315793 -16.424310 2.163377 -0.719622 -2.412526 -0.334501
-47.625652 55.075719 45.510893 -178.212129 -29.631110 -10.653321 0.218132 13.638929 5.657311 -0.016818 7.834422 2.218295 -0.043818 9.772827 2.763479 0.052324 7.857674 2.221803 3.115770 18.695230 0.772573 3.130043 -5.961388 0.109339 0.650512 2.293781 -3.212325 -17.384702 -7.432346 4.904247 -125.543393 -66.353774 148.823669 3.139854 -10.578841 -7.653582 -8.741197 1.370837 -3.825843 7.599554 -6.375160 0.751958 -167.912505 -62.623089 167.885141 28.938620 -3.321752 -14.624115 -19.697205 -37.736086 5.415859 15.467055 85.746955 11.122359 0.528703 -15.659205 2.202602 -0.071350 0.467301 -0.018349 -15.674013 -48.483293 15.065392 169.958292 79.094110 165.051727 -1.321640 -16.425999 2.162037 -0.709564 -2.418877 -0.334895
-47.635475 55.072945 45.500113 -178.184467 -29.599367 -10.661641 0.233914 13.631872 5.673016 -0.033069 7.821110 2.215621 0.047664 9.794079 2.785484 0.008539 7.836296 2.223362 3.103765 18.679582 0.687596 3.136415 -5.979003 0.021917 0.634705 2.312653 -3.187950 -17.486613 -7.313360 5.063809 -127.067478 -67.099788 149.665093 3.304078 -10.845100 -7.802433 -8.755775 1.366118 -3.804904 7.616766 -6.174959 0.792289 -164.218048 -62.977969 165.104237 28.523509 -4.019584 -14.577178 -19.718975 -37.758678 5.432599 15.440345 85.760605 11.062091 0.511801 -15.676449 2.235271 -0.074001 0.466726 -0.018866 -15.714880 -48.513940 15.060461 169.892139 79.077002 164.984824 -1.329771 -16.427365 2.161408 -0.702747 -2.426237 -0.333195
-47.644116 55.071121 45.488215 -178.161270 -29.574282 -10.675609 0.253335 13.628344 5.695995 -0.047581 7.810336 2.212450 0.095090 9.801045 2.796910 -0.000420 7.826670 2.226312 3.098133 18.668607 0.602558 3.149784 -5.991152 -0.067015 0.599561 2.310452 -3.173480 -17.597044 -7.189646 5.258598 -129.028465 -67.936807 150.894493 3.516942 -11.096903 -7.957509 -8.651810 1.421685 -3.753812 7.531792 -6.035301 0.793250 -160.519546 -63.263079 162.272609 28.097820 -4.731065 -14.583458 -19.707116 -37.773749 5.433045 15.395761 85.772884 11.014901 0.497196 -15.693228 2.260113 -0.074594 0.466671 -0.017200 -15.756939 -48.534855 15.059949 169.822423 79.058516 164.921776 -1.336111 -16.435096 2.146751 -0.694452 -2.430216 -0.321592
